<svg width="30" height="31" viewBox="0 0 30 31" fill="none" xmlns="http://www.w3.org/2000/svg">
<path d="M10.8 8.26704C10.8 8.62305 10.6944 8.97106 10.4966 9.26707C10.2989 9.56308 10.0177 9.79379 9.68883 9.93003C9.35992 10.0663 8.998 10.1019 8.64884 10.0325C8.29967 9.963 7.97894 9.79157 7.72721 9.53983C7.47547 9.2881 7.30404 8.96737 7.23459 8.6182C7.16513 8.26904 7.20078 7.90712 7.33702 7.57821C7.47325 7.2493 7.70397 6.96818 7.99997 6.7704C8.29598 6.57261 8.64399 6.46704 9 6.46704C9.47739 6.46704 9.93523 6.65668 10.2728 6.99425C10.6104 7.33181 10.8 7.78965 10.8 8.26704ZM30 2.86704V28.067C30 28.7036 29.7471 29.314 29.2971 29.7641C28.847 30.2142 28.2365 30.467 27.6 30.467H2.4C1.76348 30.467 1.15303 30.2142 0.702944 29.7641C0.252856 29.314 0 28.7036 0 28.067V2.86704C0 2.23052 0.252856 1.62007 0.702944 1.16998C1.15303 0.719897 1.76348 0.467041 2.4 0.467041H27.6C28.2365 0.467041 28.847 0.719897 29.2971 1.16998C29.7471 1.62007 30 2.23052 30 2.86704ZM27.6 28.067V2.86704H2.4V28.067H27.6ZM9 11.867C8.68174 11.867 8.37652 11.9935 8.15147 12.2185C7.92643 12.4436 7.8 12.7488 7.8 13.067V22.667C7.8 22.9853 7.92643 23.2905 8.15147 23.5156C8.37652 23.7406 8.68174 23.867 9 23.867C9.31826 23.867 9.62348 23.7406 9.84853 23.5156C10.0736 23.2905 10.2 22.9853 10.2 22.667V13.067C10.2 12.7488 10.0736 12.4436 9.84853 12.2185C9.62348 11.9935 9.31826 11.867 9 11.867ZM18 11.867C16.9197 11.867 15.8642 12.1909 14.97 12.797C14.9044 12.5091 14.7349 12.2555 14.494 12.0847C14.253 11.9139 13.9576 11.838 13.6642 11.8714C13.3707 11.9048 13.0999 12.0453 12.9036 12.2659C12.7073 12.4865 12.5992 12.7717 12.6 13.067V22.667C12.6 22.9853 12.7264 23.2905 12.9515 23.5156C13.1765 23.7406 13.4817 23.867 13.8 23.867C14.1183 23.867 14.4235 23.7406 14.6485 23.5156C14.8736 23.2905 15 22.9853 15 22.667V17.267C15 16.4714 15.3161 15.7083 15.8787 15.1457C16.4413 14.5831 17.2044 14.267 18 14.267C18.7957 14.267 19.5587 14.5831 20.1213 15.1457C20.6839 15.7083 21 16.4714 21 17.267V22.667C21 22.9853 21.1264 23.2905 21.3515 23.5156C21.5765 23.7406 21.8817 23.867 22.2 23.867C22.5183 23.867 22.8235 23.7406 23.0485 23.5156C23.2736 23.2905 23.4 22.9853 23.4 22.667V17.267C23.4 15.8349 22.8311 14.4614 21.8184 13.4487C20.8057 12.436 19.4322 11.867 18 11.867Z" fill="#21424E"/>
</svg>
