<svg width="23" height="23" viewBox="0 0 23 23" fill="none" xmlns="http://www.w3.org/2000/svg">
<g clip-path="url(#clip0_47_70)">
<path fill-rule="evenodd" clip-rule="evenodd" d="M11.5 20.8438C13.1403 20.8462 14.7521 20.4147 16.1719 19.5931V16.5312C16.1719 15.6734 15.8311 14.8508 15.2245 14.2442C14.618 13.6376 13.7953 13.2969 12.9375 13.2969H10.0625C9.20469 13.2969 8.38201 13.6376 7.77545 14.2442C7.16889 14.8508 6.82812 15.6734 6.82812 16.5312V19.5931C8.24788 20.4147 9.85967 20.8462 11.5 20.8438ZM18.3281 16.5312V17.8782C19.5711 16.5475 20.3982 14.8826 20.7078 13.0882C21.0173 11.2938 20.7958 9.44799 20.0704 7.77777C19.345 6.10756 18.1474 4.68569 16.6248 3.68696C15.1022 2.68823 13.3209 2.15616 11.5 2.15616C9.67907 2.15616 7.89782 2.68823 6.37521 3.68696C4.85261 4.68569 3.655 6.10756 2.92962 7.77777C2.20425 9.44799 1.9827 11.2938 2.29223 13.0882C2.60176 14.8826 3.42886 16.5475 4.67188 17.8782V16.5312C4.67186 15.4199 5.01517 14.3357 5.65484 13.4268C6.29451 12.518 7.19931 11.829 8.2455 11.454C7.70268 10.8296 7.35091 10.0623 7.23216 9.24355C7.1134 8.42479 7.23267 7.58915 7.57573 6.8363C7.9188 6.08345 8.47118 5.44517 9.16699 4.99759C9.8628 4.55001 10.6727 4.31203 11.5 4.31203C12.3273 4.31203 13.1372 4.55001 13.833 4.99759C14.5288 5.44517 15.0812 6.08345 15.4243 6.8363C15.7673 7.58915 15.8866 8.42479 15.7678 9.24355C15.6491 10.0623 15.2973 10.8296 14.7545 11.454C15.8007 11.829 16.7055 12.518 17.3452 13.4268C17.9848 14.3357 18.3281 15.4199 18.3281 16.5312ZM11.5 23C14.55 23 17.4751 21.7884 19.6317 19.6317C21.7884 17.4751 23 14.55 23 11.5C23 8.45001 21.7884 5.52494 19.6317 3.36827C17.4751 1.2116 14.55 0 11.5 0C8.45001 0 5.52494 1.2116 3.36827 3.36827C1.2116 5.52494 0 8.45001 0 11.5C0 14.55 1.2116 17.4751 3.36827 19.6317C5.52494 21.7884 8.45001 23 11.5 23ZM13.6562 8.625C13.6562 9.19687 13.4291 9.74532 13.0247 10.1497C12.6203 10.5541 12.0719 10.7812 11.5 10.7812C10.9281 10.7812 10.3797 10.5541 9.9753 10.1497C9.57093 9.74532 9.34375 9.19687 9.34375 8.625C9.34375 8.05313 9.57093 7.50468 9.9753 7.1003C10.3797 6.69593 10.9281 6.46875 11.5 6.46875C12.0719 6.46875 12.6203 6.69593 13.0247 7.1003C13.4291 7.50468 13.6562 8.05313 13.6562 8.625Z" fill="#21424E"/>
</g>
<defs>
<clipPath id="clip0_47_70">
<rect width="23" height="23" fill="white"/>
</clipPath>
</defs>
</svg>
