<svg width="24" height="24" viewBox="0 0 24 24" fill="none" xmlns="http://www.w3.org/2000/svg">
<path d="M11.9928 2.566C10.1791 2.56043 8.42808 3.22933 7.08 4.44272C5.72945 5.64897 4.8687 7.30906 4.66114 9.10796C4.47451 10.7254 4.82759 12.3538 5.65691 13.7431C5.05723 12.7455 4.70014 11.6179 4.61825 10.4516C4.52329 9.09895 4.80211 7.74626 5.42422 6.54143C6.04633 5.3366 6.98777 4.32604 8.14558 3.62028C9.30339 2.91451 10.633 2.54071 11.9889 2.53977C13.3449 2.53882 14.675 2.91076 15.8338 3.61491C16.9926 4.31906 17.9354 5.3283 18.5592 6.53225C18.9753 7.33533 19.2388 8.20441 19.3404 9.0956C19.2547 8.35246 19.056 7.62364 18.7486 6.93499C18.2271 5.76686 17.4107 4.75449 16.3797 3.99732C15.3486 3.24016 14.1382 2.76425 12.8676 2.61635L12.8665 2.61623C12.5765 2.5831 12.2848 2.56633 11.9928 2.566ZM12.5492 21.3047C12.6432 21.2579 12.7304 21.1995 12.809 21.131C12.731 21.1993 12.6444 21.2577 12.5511 21.3044C12.4481 21.3559 12.3386 21.3924 12.226 21.4131C12.3379 21.3922 12.4467 21.3558 12.5492 21.3047ZM11.4488 21.3051C11.37 21.2657 11.2959 21.218 11.2279 21.163C11.2959 21.2178 11.3698 21.2653 11.4484 21.3047C11.5112 21.3361 11.5764 21.3619 11.6432 21.382C11.5765 21.3621 11.5115 21.3363 11.4488 21.3051ZM11.2255 21.7524C10.9851 21.6324 10.7762 21.4575 10.6158 21.242L11.9998 21.933C11.7311 21.9343 11.4659 21.8724 11.2255 21.7524Z" fill="#21424E" stroke="#21424E"/>
<path d="M12 12.5C11.5055 12.5 11.0222 12.3534 10.6111 12.0787C10.2 11.804 9.87952 11.4135 9.6903 10.9567C9.50108 10.4999 9.45157 9.99723 9.54804 9.51228C9.6445 9.02732 9.8826 8.58187 10.2322 8.23223C10.5819 7.8826 11.0273 7.6445 11.5123 7.54804C11.9972 7.45157 12.4999 7.50108 12.9567 7.6903C13.4135 7.87952 13.804 8.19995 14.0787 8.61108C14.3534 9.0222 14.5 9.50555 14.5 10C14.5 10.663 14.2366 11.2989 13.7678 11.7678C13.2989 12.2366 12.663 12.5 12 12.5V12.5ZM12 8.5C11.7033 8.5 11.4133 8.58797 11.1666 8.7528C10.92 8.91762 10.7277 9.15189 10.6142 9.42598C10.5007 9.70007 10.4709 10.0017 10.5288 10.2926C10.5867 10.5836 10.7296 10.8509 10.9393 11.0607C11.1491 11.2704 11.4164 11.4133 11.7074 11.4712C11.9983 11.5291 12.2999 11.4994 12.574 11.3858C12.8481 11.2723 13.0824 11.08 13.2472 10.8334C13.412 10.5867 13.5 10.2967 13.5 10C13.5 9.60218 13.342 9.22065 13.0607 8.93934C12.7794 8.65804 12.3978 8.5 12 8.5Z" fill="#21424E"/>
</svg>
