<svg width="20" height="18" viewBox="0 0 20 18" fill="none" xmlns="http://www.w3.org/2000/svg">
<path d="M19.2161 0H0.783649C0.391515 0 0.074707 0.36439 0.074707 0.815418V17.1238C0.074707 17.5748 0.391515 17.9392 0.783649 17.9392H19.2161C19.6083 17.9392 19.9251 17.5748 19.9251 17.1238V0.815418C19.9251 0.36439 19.6083 0 19.2161 0ZM18.33 2.82338V16.1045H1.66983V2.82338L1.05836 2.27553L1.92903 0.988694L2.87724 1.83724H17.1248L18.073 0.988694L18.9436 2.27553L18.33 2.82338ZM17.1248 1.83469L9.99989 8.20514L2.87503 1.83469L1.92682 0.986146L1.05615 2.27298L1.66761 2.82084L9.23557 9.5888C9.45321 9.78328 9.72097 9.88885 9.99657 9.88885C10.2722 9.88885 10.5399 9.78328 10.7576 9.5888L18.33 2.82338L18.9414 2.27553L18.0708 0.988694L17.1248 1.83469Z" fill="#21424E"/>
</svg>
