<svg width="22" height="22" viewBox="0 0 22 22" fill="none" xmlns="http://www.w3.org/2000/svg">
<path d="M9.49024 5.24075L6.13254 1.33599C5.74546 0.886013 5.03581 0.888013 4.5862 1.34199L1.82501 4.12882C1.00321 4.95777 0.767981 6.1887 1.2434 7.17564C4.08361 13.1002 8.82629 17.8851 14.7029 20.7548C15.6816 21.2338 16.9024 20.9968 17.7242 20.1679L20.5112 17.355C20.9628 16.9001 20.9638 16.1811 20.5131 15.7911L16.6225 12.4263C16.2155 12.0743 15.5833 12.1203 15.1754 12.5323L13.8216 13.8982C13.7523 13.9714 13.661 14.0197 13.5619 14.0356C13.4627 14.0514 13.3612 14.0341 13.2727 13.9862C11.0598 12.7024 9.22423 10.8506 7.95282 8.61955C7.90521 8.53031 7.88797 8.42779 7.90375 8.32772C7.91952 8.22766 7.96745 8.13557 8.04017 8.06558L9.38999 6.70466C9.79891 6.29069 9.84357 5.65073 9.49024 5.23975V5.24075Z" stroke="#21424E" stroke-width="2" stroke-linecap="round" stroke-linejoin="round"/>
</svg>
