<svg width="18" height="20" viewBox="0 0 18 20" fill="none" xmlns="http://www.w3.org/2000/svg">
<path d="M9 20L2.48128 12.8936C2.3907 12.7869 2.30106 12.6795 2.21237 12.5714C1.09886 11.2156 0.49731 9.55945 0.500009 7.85714C0.500009 5.7733 1.39554 3.7748 2.9896 2.3013C4.58366 0.827804 6.74566 0 9 0C11.2543 0 13.4163 0.827804 15.0104 2.3013C16.6045 3.7748 17.5 5.7733 17.5 7.85714C17.5027 9.55867 16.9014 11.214 15.7884 12.5693L15.7876 12.5714C15.7876 12.5714 15.5558 12.8529 15.521 12.8907L9 20ZM3.44564 11.7107C3.44719 11.7107 3.62646 11.9307 3.66741 11.9779L9 17.7914L14.3395 11.97C14.3735 11.9307 14.5544 11.7093 14.5551 11.7086C15.4647 10.6008 15.9563 9.24788 15.9545 7.85714C15.9545 6.15218 15.2218 4.51705 13.9176 3.31146C12.6134 2.10587 10.8445 1.42857 9 1.42857C7.15554 1.42857 5.38663 2.10587 4.0824 3.31146C2.77817 4.51705 2.04546 6.15218 2.04546 7.85714C2.04384 9.24874 2.53597 10.6024 3.44641 11.7107H3.44564Z" fill="#21424E"/>
</svg>
