<svg width="41" height="46" viewBox="0 0 41 46" fill="none" xmlns="http://www.w3.org/2000/svg">
<path d="M38.9899 45.976C38.7339 45.976 38.4459 45.912 38.1259 45.784C37.8059 45.656 37.5179 45.528 37.2619 45.4L2.79788 25.912C2.02988 25.528 1.48588 25.112 1.16588 24.664C0.909875 24.216 0.781875 23.64 0.781875 22.936C0.781875 22.232 1.00588 21.656 1.45388 21.208C1.90188 20.76 2.47788 20.344 3.18188 19.96L36.8779 0.855999C37.1339 0.727997 37.3899 0.631996 37.6459 0.567997C37.9019 0.439999 38.1579 0.375999 38.4139 0.375999C39.0539 0.311996 39.5659 0.471996 39.9499 0.855999C40.3339 1.176 40.5259 1.592 40.5259 2.104C40.5259 2.744 40.3979 3.224 40.1419 3.544C39.8859 3.864 39.5019 4.152 38.9899 4.408L5.00588 23.32V23.032L38.5099 41.56C39.4059 42.008 40.0139 42.392 40.3339 42.712C40.6539 43.032 40.8139 43.512 40.8139 44.152C40.8139 44.6 40.6219 45.016 40.2379 45.4C39.9179 45.784 39.5019 45.976 38.9899 45.976Z" fill="#21424E"/>
</svg>
