<svg width="42" height="47" viewBox="0 0 42 47" fill="none" xmlns="http://www.w3.org/2000/svg">
<path d="M2.544 46.688C2.032 46.688 1.584 46.496 1.2 46.112C0.88 45.728 0.72 45.312 0.72 44.864C0.72 44.224 0.88 43.744 1.2 43.424C1.584 43.104 2.192 42.72 3.024 42.272L37.392 23.936V24.224L2.544 5.12C2.096 4.864 1.712 4.576 1.392 4.256C1.136 3.936 1.008 3.456 1.008 2.816C1.008 2.304 1.2 1.888 1.584 1.568C1.968 1.184 2.48 1.024 3.12 1.088C3.376 1.088 3.632 1.152 3.888 1.27999C4.144 1.344 4.4 1.44 4.656 1.568L39.216 20.864C39.92 21.248 40.496 21.664 40.944 22.112C41.392 22.56 41.616 23.136 41.616 23.84C41.616 24.544 41.456 25.12 41.136 25.568C40.88 26.016 40.368 26.432 39.6 26.816L4.272 46.112C4.016 46.24 3.728 46.368 3.408 46.496C3.088 46.624 2.8 46.688 2.544 46.688Z" fill="#21424E"/>
</svg>
