<svg width="24" height="24" viewBox="0 0 24 24" fill="none" xmlns="http://www.w3.org/2000/svg">
<path d="M14.4718 20.937C14.2006 20.938 13.9346 20.8623 13.7046 20.7186C13.4746 20.575 13.2899 20.3692 13.1718 20.125L10.2998 14.343C10.1618 14.0648 9.93624 13.8396 9.65782 13.702L3.87382 10.831C3.61493 10.7022 3.40004 10.4995 3.25634 10.2486C3.11263 9.99772 3.04655 9.70983 3.06646 9.42136C3.08637 9.13289 3.19137 8.85681 3.36819 8.62802C3.545 8.39923 3.78569 8.228 4.05982 8.136L19.0118 3.136C19.2692 3.04967 19.5455 3.03681 19.8098 3.09886C20.0741 3.16092 20.3159 3.29542 20.5079 3.48728C20.7 3.67913 20.8348 3.92073 20.8971 4.18495C20.9594 4.44917 20.9469 4.72553 20.8608 4.983L15.8608 19.935C15.7717 20.2107 15.6015 20.4531 15.3724 20.6304C15.1433 20.8078 14.866 20.9118 14.5768 20.929C14.5422 20.9352 14.507 20.9379 14.4718 20.937ZM19.4788 4.063C19.4282 4.06323 19.3779 4.07132 19.3298 4.087L4.37782 9.087C4.29129 9.11583 4.21528 9.16973 4.15946 9.24186C4.10363 9.31398 4.07051 9.40107 4.06429 9.49206C4.05808 9.58306 4.07905 9.67384 4.12455 9.75289C4.17005 9.83194 4.23801 9.89567 4.31982 9.936L10.0998 12.805C10.5757 13.0408 10.9619 13.4252 11.1998 13.9L14.0698 19.682C14.1084 19.7654 14.1719 19.8348 14.2517 19.8804C14.3314 19.9261 14.4234 19.9459 14.5148 19.937C14.6051 19.9312 14.6916 19.8984 14.763 19.8427C14.8343 19.7871 14.8872 19.7112 14.9148 19.625L19.9148 4.672C19.9376 4.60304 19.9438 4.52967 19.933 4.45786C19.9221 4.38604 19.8945 4.3178 19.8523 4.25867C19.8101 4.19954 19.7546 4.15119 19.6902 4.11754C19.6258 4.08389 19.5544 4.06589 19.4818 4.065L19.4788 4.063Z" fill="#21424E"/>
</svg>
