<svg width="24" height="24" viewBox="0 0 24 24" fill="none" xmlns="http://www.w3.org/2000/svg">
<path d="M7.15625 9.64285L12.3125 13.7054L17.4688 9.64285" stroke="#21424E" stroke-linecap="round" stroke-linejoin="round"/>
<path d="M2 18.9286V7.32143C2 6.70575 2.2173 6.11528 2.60409 5.67993C2.99089 5.24458 3.51549 5 4.0625 5H20.5625C21.1095 5 21.6341 5.24458 22.0209 5.67993C22.4077 6.11528 22.625 6.70575 22.625 7.32143V18.9286C22.625 19.5443 22.4077 20.1347 22.0209 20.5701C21.6341 21.0054 21.1095 21.25 20.5625 21.25H4.0625C3.51549 21.25 2.99089 21.0054 2.60409 20.5701C2.2173 20.1347 2 19.5443 2 18.9286Z" stroke="#21424E"/>
</svg>
