<svg width="35" height="35" viewBox="0 0 35 35" fill="none" xmlns="http://www.w3.org/2000/svg">
<path d="M17.5 3.82812C14.796 3.82812 12.1526 4.62997 9.90432 6.13225C7.65599 7.63454 5.90363 9.76979 4.86884 12.268C3.83405 14.7662 3.5633 17.5152 4.09083 20.1673C4.61836 22.8193 5.92048 25.2554 7.83253 27.1675C9.74458 29.0795 12.1807 30.3816 14.8328 30.9092C17.4848 31.4367 20.2338 31.166 22.732 30.1312C25.2302 29.0964 27.3655 27.344 28.8678 25.0957C30.37 22.8474 31.1719 20.204 31.1719 17.5C31.1647 13.8762 29.7219 10.4029 27.1595 7.84051C24.5971 5.2781 21.1238 3.83535 17.5 3.82812V3.82812ZM17.5 30.0781C15.0123 30.0781 12.5804 29.3404 10.512 27.9583C8.44351 26.5762 6.83134 24.6118 5.87933 22.3134C4.92733 20.0151 4.67824 17.486 5.16357 15.0461C5.6489 12.6062 6.84685 10.365 8.60593 8.60592C10.365 6.84684 12.6062 5.64889 15.0461 5.16356C17.4861 4.67823 20.0151 4.92732 22.3134 5.87933C24.6118 6.83134 26.5762 8.44351 27.9583 10.512C29.3404 12.5804 30.0781 15.0123 30.0781 17.5C30.0745 20.8348 28.7482 24.032 26.3901 26.3901C24.032 28.7482 20.8348 30.0745 17.5 30.0781V30.0781ZM22.5313 16.2832C22.6293 16.3893 22.6837 16.5284 22.6837 16.6729C22.6837 16.8173 22.6293 16.9564 22.5313 17.0625C22.479 17.1134 22.4168 17.1529 22.3486 17.1788C22.2804 17.2047 22.2076 17.2163 22.1348 17.2129C22.0641 17.2152 21.9937 17.2031 21.9278 17.1772C21.862 17.1513 21.8022 17.1123 21.752 17.0625L18.0469 13.3574V22.9688C18.0469 23.1138 17.9893 23.2529 17.8867 23.3554C17.7841 23.458 17.645 23.5156 17.5 23.5156C17.355 23.5156 17.2159 23.458 17.1133 23.3554C17.0107 23.2529 16.9531 23.1138 16.9531 22.9688V13.3574L13.2481 17.0625C13.1447 17.1658 13.0046 17.2239 12.8584 17.2239C12.7123 17.2239 12.5721 17.1658 12.4688 17.0625C12.3654 16.9592 12.3074 16.819 12.3074 16.6729C12.3074 16.5267 12.3654 16.3865 12.4688 16.2832L17.1172 11.6484C17.1669 11.5972 17.2264 11.5564 17.2922 11.5286C17.3579 11.5007 17.4286 11.4864 17.5 11.4864C17.5714 11.4864 17.6421 11.5007 17.7079 11.5286C17.7736 11.5564 17.8331 11.5972 17.8828 11.6484L22.5313 16.2832Z" fill="#21424E"/>
</svg>
