<svg width="24" height="24" viewBox="0 0 24 24" fill="none" xmlns="http://www.w3.org/2000/svg">
<path d="M7.49996 9H3.49996C3.36735 9 3.24018 9.05268 3.14641 9.14645C3.05264 9.24022 2.99996 9.3674 2.99996 9.5V21.5C2.99996 21.6326 3.05264 21.7598 3.14641 21.8536C3.24018 21.9473 3.36735 22 3.49996 22H7.49996C7.63257 22 7.75975 21.9473 7.85352 21.8536C7.94728 21.7598 7.99996 21.6326 7.99996 21.5V9.5C7.99996 9.3674 7.94728 9.24022 7.85352 9.14645C7.75975 9.05268 7.63257 9 7.49996 9ZM6.99996 21H3.99996V10H6.99996V21ZM18 9C16.915 9 15.86 9.358 15 10.019V9.5C15 9.3674 14.9473 9.24022 14.8535 9.14645C14.7597 9.05268 14.6326 9 14.5 9H10.5C10.3674 9 10.2402 9.05268 10.1464 9.14645C10.0526 9.24022 9.99996 9.3674 9.99996 9.5V21.5C9.99996 21.6326 10.0526 21.7598 10.1464 21.8536C10.2402 21.9473 10.3674 22 10.5 22H14.5C14.6326 22 14.7597 21.9473 14.8535 21.8536C14.9473 21.7598 15 21.6326 15 21.5V16C15 15.6022 15.158 15.2206 15.4393 14.9393C15.7206 14.658 16.1021 14.5 16.5 14.5C16.8978 14.5 17.2793 14.658 17.5606 14.9393C17.8419 15.2206 18 15.6022 18 16V21.5C18 21.6326 18.0526 21.7598 18.1464 21.8536C18.2402 21.9473 18.3674 22 18.5 22H22.5C22.6326 22 22.7597 21.9473 22.8535 21.8536C22.9473 21.7598 23 21.6326 23 21.5V14C22.9984 12.6744 22.4711 11.4036 21.5337 10.4662C20.5964 9.52889 19.3256 9.00159 18 9V9ZM22 21H19V16C19 15.337 18.7366 14.7011 18.2677 14.2322C17.7989 13.7634 17.163 13.5 16.5 13.5C15.8369 13.5 15.201 13.7634 14.7322 14.2322C14.2634 14.7011 14 15.337 14 16V21H11V10H14V11.203C13.9999 11.3066 14.0321 11.4076 14.0919 11.4921C14.1518 11.5766 14.2364 11.6404 14.3341 11.6748C14.4318 11.7092 14.5377 11.7123 14.6373 11.6839C14.7369 11.6554 14.8252 11.5968 14.89 11.516C15.4035 10.8651 16.1073 10.3906 16.9034 10.1588C17.6994 9.92701 18.548 9.94939 19.3307 10.2228C20.1134 10.4963 20.7912 11.0072 21.2697 11.6843C21.7482 12.3614 22.0035 13.1709 22 14V21ZM5.86796 2.002C5.75046 1.99372 5.63255 1.99305 5.51496 2C5.14073 1.97454 4.76526 2.02619 4.4118 2.15174C4.05834 2.2773 3.73442 2.47409 3.46011 2.72993C3.18581 2.98577 2.96695 3.29521 2.8171 3.63907C2.66725 3.98294 2.5896 4.35391 2.58896 4.729C2.58586 5.10018 2.65904 5.46804 2.80396 5.80977C2.94889 6.1515 3.16248 6.45981 3.43147 6.71559C3.70047 6.97137 4.01915 7.16916 4.36774 7.29669C4.71633 7.42423 5.08741 7.47879 5.45796 7.457H5.48596C5.84414 7.48209 6.20376 7.43637 6.54427 7.32248C6.88478 7.20858 7.19953 7.02873 7.47054 6.79319C7.74155 6.55766 7.96351 6.27105 8.12375 5.94973C8.28399 5.62842 8.37938 5.27868 8.40446 4.9205C8.42954 4.56232 8.38383 4.20271 8.26994 3.8622C8.15604 3.52168 7.97619 3.20694 7.74065 2.93593C7.50512 2.66492 7.21851 2.44296 6.89719 2.28271C6.57588 2.12247 6.22614 2.02709 5.86796 2.002V2.002ZM5.83296 6.46C5.71748 6.4705 5.60124 6.4695 5.48596 6.457H5.45796C5.21729 6.4751 4.97549 6.44281 4.748 6.36219C4.52051 6.28158 4.31233 6.15442 4.13675 5.98883C3.96116 5.82324 3.82204 5.62285 3.72825 5.40047C3.63447 5.17808 3.58809 4.93859 3.59206 4.69727C3.59604 4.45595 3.6503 4.21811 3.75136 3.99894C3.85243 3.77977 3.99808 3.58408 4.17903 3.42437C4.35998 3.26465 4.57224 3.14442 4.80226 3.07136C5.03228 2.99829 5.27502 2.97399 5.51496 3C5.97379 2.95783 6.43057 3.09966 6.78483 3.39428C7.13908 3.6889 7.36179 4.11218 7.40396 4.571C7.44613 5.02983 7.30431 5.48661 7.00969 5.84087C6.71507 6.19512 6.29179 6.41783 5.83296 6.46V6.46Z" fill="#21424E"/>
</svg>
